<svg width="1120" height="365" viewBox="0 0 1120 365" fill="none" xmlns="http://www.w3.org/2000/svg">
<path d="M159.81 179.466C149.629 186.288 141.392 191.912 135.098 196.338C128.804 200.764 121.418 205.514 112.94 210.587C104.462 215.66 94.6479 220.977 83.4976 226.538C88.0718 232.24 92.2847 235.231 96.1365 235.51C99.9883 235.789 103.844 234.602 107.705 231.948C111.565 229.294 115.986 225.743 120.969 221.297C125.951 216.85 131.737 211.063 138.325 203.935C144.913 196.807 152.075 188.651 159.81 179.466ZM20.8484 228.355C23.4126 226.831 26.3815 226.678 29.7553 227.898C33.129 229.117 36.2783 229.941 39.203 230.369C42.1278 230.797 45.529 230.521 49.4066 229.541C53.2842 228.561 56.1435 227.608 57.9846 226.683C59.8257 225.758 60.6836 223.941 60.5582 221.231C60.4329 218.521 61.0899 215.782 62.5295 213.014C63.969 210.245 66.3566 208.033 69.6924 206.376C73.0282 204.719 76.4569 204.205 79.9785 204.832C83.5 205.46 86.2468 206.693 88.2186 208.529C90.1905 210.366 94.8219 209.333 102.113 205.432C109.404 201.53 117.12 196.929 125.26 191.629C133.4 186.33 141.511 180.745 149.592 174.876C157.673 169.007 165.507 163.032 173.095 156.952C180.682 150.872 188.761 143.223 197.33 134.004C205.9 124.784 213.848 116.886 221.174 110.31C228.501 103.734 234.18 99.1884 238.212 96.6736C242.244 94.1587 245.833 92.4231 248.98 91.4667L250.379 91.3209C252.658 91.0833 254.165 91.9736 254.899 93.9917C255.1 94.9133 255.243 95.7886 255.33 96.6174C255.524 98.4823 255.315 100.494 254.702 102.653C253.783 105.89 250.672 109.461 245.372 113.365C240.071 117.269 234.008 121.907 227.185 127.279C220.361 132.65 214.306 137.863 209.021 142.918C203.735 147.972 198.674 152.925 193.838 157.775C189.003 162.625 184.307 167.566 179.752 172.596C175.197 177.627 170.21 183.54 164.792 190.337C159.374 197.133 155.007 202.72 151.693 207.097C148.379 211.475 145.035 215.306 141.659 218.59C138.283 221.875 135.006 225.096 131.827 228.255C128.648 231.414 125.564 234.485 122.576 237.467C119.587 240.449 115.469 243.89 110.22 247.788C106.127 250.728 101.802 252.436 97.2433 252.911C95.7929 253.062 94.3262 253.058 92.8433 252.898C86.519 252.51 80.8982 250.583 75.981 247.115C71.0638 243.648 68.0391 241.005 66.9069 239.185C65.7747 237.366 64.3263 236.784 62.5618 237.439C60.7973 238.094 57.8505 239.213 53.7215 240.795C49.5925 242.378 45.3199 243.085 40.9036 242.917C36.4874 242.749 32.5206 241.617 29.0033 239.523C25.4859 237.428 22.4148 234.842 19.7899 231.764L20.8484 228.355ZM249.542 214.415C249.348 217.577 248.687 219.531 247.561 220.277C246.434 221.022 244.085 221.843 240.512 222.739C236.94 223.635 232.473 222.975 227.11 220.759C221.747 218.542 218.064 218.376 216.061 220.261C214.058 222.145 211.019 224.635 206.943 227.731C202.867 230.826 198.812 233.37 194.778 235.361C190.744 237.353 186.033 238.629 180.645 239.191C175.499 238.051 171.71 235.854 169.276 232.6C166.842 229.345 165.409 225.645 164.977 221.501C165.193 218.546 167.01 215.136 170.43 211.271C173.85 207.406 177.174 204.127 180.402 201.434C183.629 198.742 186.974 196.665 190.435 195.204C193.896 193.744 196.45 193.635 198.098 194.877C199.747 196.119 200.909 197.726 201.586 199.698C202.263 201.669 202.225 203.323 201.474 204.658C200.723 205.993 199.515 206.957 197.848 207.549C196.182 208.142 193.882 208.931 190.947 209.918C188.013 210.905 184.948 212.9 181.753 215.904C178.557 218.907 177.918 221.566 179.835 223.88C181.752 226.193 183.933 227.275 186.379 227.125C188.824 226.975 191.059 226.061 193.084 224.384C195.108 222.707 197.529 221.067 200.347 219.464C203.165 217.861 205.872 215.955 208.47 213.747C211.068 211.539 212.215 208.984 211.913 206.083C211.61 203.182 210.288 201.042 207.945 199.663C205.601 198.284 204.482 196.332 204.585 193.808C204.689 191.284 205.65 189.455 207.47 188.323C209.289 187.191 212.421 186.341 216.865 185.773C221.625 186.219 224.717 188.254 226.142 191.875C227.566 195.497 227.85 198.976 226.994 202.312C226.137 205.648 227.916 208.395 232.33 210.553C236.744 212.711 240.537 213.18 243.709 211.959C246.881 210.738 248.825 211.557 249.542 214.415ZM306.444 210.212C306.267 212.534 305.471 214.188 304.055 215.174C302.639 216.159 300.675 217.411 298.162 218.93C295.65 220.448 292.966 221.828 290.111 223.068C287.255 224.308 284.06 225.558 280.526 226.816C276.991 228.075 274.176 228.944 272.079 229.425C269.982 229.905 267.845 230.259 265.67 230.486C263.701 230.691 261.524 230.656 259.139 230.381C256.806 230.1 254.423 229.092 251.99 227.356C249.609 225.614 248.214 222.774 247.803 218.837C247.708 215.915 248.276 212.819 249.506 209.548C250.736 206.278 252.443 203.063 254.627 199.903C256.811 196.743 259.35 193.965 262.242 191.569C265.134 189.173 267.746 187.356 270.078 186.118C272.41 184.88 273.924 183.831 274.62 182.973C275.317 182.115 276.686 181.187 278.729 180.189C280.772 179.19 282.674 178.599 284.435 178.416C285.897 178.368 287.152 178.604 288.201 179.123C289.25 179.642 290.059 180.369 290.628 181.305C291.196 182.241 291.201 183.288 290.641 184.446C290.081 185.604 289.21 186.794 288.028 188.017C286.846 189.24 286.236 190.665 286.196 192.292C286.156 193.92 285.269 194.955 283.535 195.398C281.8 195.84 279.859 195.807 277.712 195.298C275.564 194.788 273.75 194.716 272.269 195.079C270.788 195.443 269.18 196.841 267.444 199.274C265.707 201.707 264.193 204.012 262.902 206.188C261.61 208.365 260.733 210.499 260.27 212.59C259.807 214.68 260.154 216.503 261.311 218.058C262.468 219.613 263.98 220.555 265.847 220.884C267.714 221.213 270.39 221.013 273.875 220.283C277.36 219.553 280.859 218.455 284.371 216.99C287.884 215.524 291.311 213.988 294.652 212.383C297.994 210.778 300.395 209.454 301.858 208.412C303.32 207.369 304.849 207.969 306.444 210.212ZM341.651 223.194C336.303 223.123 332.364 222.513 329.835 221.362C327.307 220.212 325.167 218.524 323.416 216.297C321.666 214.071 320.614 211.772 320.262 209.4C319.91 207.028 319.95 204.641 320.38 202.24C320.805 199.786 320.085 199.914 318.221 202.622C316.408 205.324 313.773 207.929 310.316 210.436C306.86 212.944 303.93 214.977 301.526 216.537C299.118 218.045 297.174 216.231 295.696 211.096C303.684 206.336 309.335 201.27 312.65 195.897C315.959 190.473 319.961 186.416 324.656 183.728C329.397 180.982 333.143 178.235 335.893 175.487C338.644 172.739 341.433 171.611 344.259 172.102C347.086 172.592 348.614 174.187 348.843 176.887C349.072 179.586 347.755 182.027 344.893 184.211C342.031 186.394 339.96 188.626 338.679 190.906C337.398 193.187 336.426 195.671 335.764 198.358C335.101 201.046 335.345 203.638 336.496 206.137C337.647 208.635 339.506 210.143 342.073 210.661C344.641 211.179 348.564 211.137 353.842 210.534C359.121 209.931 363.7 208.904 367.581 207.452C371.462 206.001 374.81 204.212 377.626 202.085C380.441 199.959 382.912 199.047 385.038 199.349L386.359 202.982C385.239 205.298 383.488 207.339 381.107 209.106C378.725 210.873 376.345 212.404 373.966 213.699C371.588 214.994 368.147 216.4 363.645 217.917C359.142 219.434 353.976 220.862 348.146 222.203L341.651 223.194ZM371.747 120.065C372.792 117.024 375.112 114.164 378.708 111.485L381.644 111.022C384.249 111.902 385.701 113.27 385.999 115.124C386.297 116.978 387.776 118.604 390.435 120.003L389.623 122.758C387.298 124.571 384.666 125.945 381.726 126.88L378.848 126.395C375.716 123.474 373.349 121.365 371.747 120.065ZM408.32 201.164C416.343 196.243 421.792 192.507 424.668 189.955C427.544 187.404 429.142 185.143 429.46 183.172C429.778 181.202 429.389 179.226 428.292 177.246C427.196 175.265 425.032 174.601 421.801 175.252C418.569 175.903 415.166 177.41 411.589 179.772C408.013 182.135 404.475 185.122 400.977 188.733C397.478 192.345 395.343 195.473 394.571 198.12C393.8 200.766 394.497 202.683 396.663 203.871C398.829 205.059 402.715 204.157 408.32 201.164ZM423.739 203.641C419.609 205.224 415.959 207.123 412.786 209.339C409.613 211.555 406.495 213.293 403.432 214.555C400.37 215.817 396.922 216.648 393.088 217.047C390.446 217.323 387.574 216.391 384.471 214.254C381.42 212.111 379.57 207.931 378.922 201.715C378.686 198.44 381.014 193.903 385.908 188.104C390.797 182.254 396.688 176.979 403.582 172.281C410.476 167.582 416.772 164.936 422.47 164.342C427.547 163.813 431.225 164.189 433.506 165.47C435.786 166.751 437.358 168.263 438.22 170.006C439.083 171.748 439.555 173.768 439.637 176.063C439.719 178.359 440.795 179.137 442.865 178.397C444.935 177.658 446.154 178.552 446.522 181.08C446.89 183.607 446.156 186.354 444.318 189.321C442.48 192.288 440.996 194.38 439.867 195.598C438.737 196.815 438.501 198.07 439.159 199.363C439.818 200.656 441.72 201.322 444.866 201.361C448.012 201.399 451.306 200.846 454.747 199.702C458.235 198.501 461.203 196.83 463.651 194.69C466.15 192.544 467.851 191.529 468.753 191.644C469.707 191.754 470.581 192.606 471.376 194.199C471.534 196.224 470.135 198.622 467.177 201.391C464.265 204.104 460.934 206.31 457.184 208.01C453.48 209.653 449.671 210.783 445.755 211.401C439.953 212.005 435.326 211.571 431.874 210.098C428.421 208.625 425.709 206.473 423.739 203.641ZM495.856 164.548C500.164 163.68 504.193 161.898 507.945 159.203C511.696 156.508 515.558 153.121 519.532 149.041C523.505 144.961 526.504 141.324 528.527 138.128C530.55 134.932 531.367 132.464 530.976 130.725C530.585 128.985 529.349 128.433 527.269 129.069C525.188 129.705 522.513 131.424 519.244 134.225C515.975 137.027 512.62 140.755 509.177 145.407C505.735 150.06 502.941 153.65 500.796 156.178C498.65 158.706 497.004 161.496 495.856 164.548ZM528.872 188.913C527.642 192.183 524.778 195.1 520.28 197.663C515.782 200.227 507.574 203.124 495.658 206.356L484.934 207.474C479.078 207.561 475.246 206.965 473.437 205.687C471.628 204.41 470.215 202.908 469.197 201.181C468.179 199.454 467.396 197.467 466.848 195.22C466.845 192.183 468.552 188.209 471.967 183.297C475.383 178.386 478.679 174.088 481.856 170.406C485.033 166.723 489.199 160.974 494.354 153.158C499.509 145.342 504.617 138.578 509.677 132.866C514.737 127.155 519.354 122.72 523.528 119.562C527.703 116.404 531.946 112.4 536.258 107.552L539.179 106.934C541.812 107.078 543.972 107.455 545.659 108.065C547.346 108.674 548.726 109.604 549.798 110.854L550.76 114.053C550.316 116.822 548.501 121.017 545.317 126.638C542.132 132.259 538.35 137.418 533.97 142.116C529.589 146.815 525.395 151.284 521.386 155.524C517.377 159.765 513.071 163.172 508.47 165.747C503.868 168.321 499.83 170.522 496.355 172.351C492.88 174.179 489.866 176.666 487.314 179.813C484.762 182.959 482.888 186.086 481.694 189.196C480.499 192.305 480.422 194.827 481.461 196.761C482.501 198.695 484.528 199.557 487.543 199.347C490.559 199.138 494.054 198.511 498.03 197.469C502.006 196.426 505.839 195.267 509.529 193.992C513.218 192.717 516.41 191.18 519.102 189.381C521.795 187.582 523.766 186.146 525.015 185.073C526.265 184 527.551 185.28 528.872 188.913ZM614.104 168.639C608.518 174.825 604.719 179.829 602.709 183.651C600.75 187.469 600.314 189.818 601.401 190.7C602.488 191.582 605.29 190.583 609.808 187.703C614.325 184.823 618.614 181.758 622.674 178.507C626.733 175.256 629.602 172.129 631.279 169.127C632.956 166.124 633.899 163.12 634.109 160.113C634.32 157.106 633.827 155.142 632.631 154.219C631.435 153.296 629.708 153.555 627.449 154.995C625.19 156.434 620.742 160.983 614.104 168.639ZM633.656 179.876C631.56 181.875 629.182 183.929 626.522 186.039C623.862 188.149 621.333 190.01 618.935 191.622C616.537 193.233 614.049 194.985 611.471 196.877C608.893 198.769 606.823 200.268 605.263 201.373C603.702 202.478 600.394 203.399 595.339 204.135C591.67 204.099 588.82 202.877 586.788 200.471C585.454 198.725 584.679 196.815 584.463 194.743C584.811 191.042 585.978 187.673 587.966 184.638C589.954 181.603 592.124 178.314 594.478 174.769C596.831 171.225 599.295 167.983 601.869 165.044C604.443 162.106 606.999 159.247 609.537 156.469C612.075 153.691 614.982 151.188 618.259 148.962C621.535 146.735 624.814 145.032 628.094 143.852C631.375 142.672 634.091 142.101 636.242 142.139C638.393 142.176 640.326 142.891 642.042 144.283C643.758 145.676 644.781 147.192 645.109 148.834C645.437 150.475 645.88 152.21 646.437 154.037C646.994 155.864 648.09 155.828 649.724 153.93C651.359 152.031 652.716 149.978 653.795 147.771C654.875 145.564 656.617 142.188 659.024 137.643C661.43 133.099 663.579 129.602 665.471 127.153C667.363 124.704 669.881 121.483 673.025 117.49C676.17 113.496 679.47 109.487 682.925 105.461C686.381 101.435 689.695 98.3143 692.868 96.0984C696.041 93.8826 698.445 92.5846 700.081 92.2046C702.518 92.4743 704.165 92.9571 705.024 93.6532C705.882 94.3492 706.678 95.7063 707.412 97.7244C706.732 101.251 704.957 105.076 702.088 109.198C699.219 113.319 696.121 117.517 692.797 121.791C689.472 126.065 686.606 129.218 684.2 131.249C681.793 133.28 679.331 135.029 676.813 136.496C674.295 137.963 671.658 140.542 668.901 144.233C666.143 147.924 663.206 151.896 660.088 156.148C656.971 160.401 654.822 163.898 653.641 166.639C652.461 169.38 651.113 171.772 649.598 173.816C648.083 175.859 647.398 177.579 647.544 178.978C647.69 180.377 648.691 181.189 650.547 181.414C652.403 181.64 654.351 180.73 656.389 178.685C658.428 176.639 661.455 175.041 665.472 173.889C669.489 172.737 672.489 171.377 674.473 169.809C676.456 168.241 677.77 168.287 678.415 169.948C679.059 171.609 679.542 172.972 679.862 174.039C680.183 175.105 678.849 176.631 675.862 178.619C672.875 180.606 670.07 182.076 667.446 183.03C664.823 183.985 662.492 184.987 660.455 186.037C658.417 187.087 655.528 188.253 651.786 189.533C648.044 190.813 644.667 191.322 641.655 191.06C638.643 190.798 636.542 189.734 635.353 187.868C634.163 186.002 633.598 183.338 633.656 179.876ZM688.257 162.638C692.374 159.434 695.906 156.395 698.853 153.522C701.847 150.591 702.862 148.522 701.898 147.313C700.98 146.047 699.426 146.209 697.236 147.799C695.097 149.384 693.152 151.576 691.402 154.377C689.703 157.172 688.655 159.926 688.257 162.638ZM743.157 164.849C742.15 168.253 739.815 171.22 736.151 173.748C732.482 176.225 728.063 178.545 722.895 180.707C717.726 182.869 711.827 184.296 705.196 184.987C698.151 185.721 692.966 185.712 689.641 184.959C686.362 184.148 683.335 182.736 680.559 180.721C677.829 178.649 676.227 175.334 675.752 170.775C675.298 166.424 675.594 162.727 676.638 159.686C677.683 156.645 679.526 153.232 682.169 149.448C684.864 145.659 687.9 142.384 691.278 139.623C694.707 136.857 698.65 135.241 703.105 134.777C706.316 134.442 709.203 135.005 711.764 136.466C714.325 137.927 715.643 140.775 715.718 145.009C715.792 149.243 713.671 153.26 709.355 157.061C705.038 160.863 700.962 163.958 697.127 166.348C693.343 168.732 691.764 170.415 692.39 171.397C693.063 172.322 694.634 173.075 697.103 173.655C699.567 174.184 703.521 174.191 708.966 173.676C714.41 173.161 719.2 172.138 723.334 170.607C727.469 169.076 730.792 167.552 733.305 166.033C735.817 164.515 737.803 163.47 739.262 162.899C740.721 162.328 742.019 162.978 743.157 164.849ZM775.739 154.148C768.349 158.113 760.805 162.093 753.105 166.09C754.168 168.755 756.152 169.7 759.056 168.926C761.96 168.152 764.548 166.861 766.821 165.053C769.14 163.188 771.199 161.088 772.998 158.754C774.797 156.419 775.711 154.884 775.739 154.148ZM736.251 160.385C736.009 157.059 736.081 154.485 736.467 152.665C736.853 150.844 737.687 149.552 738.969 148.79C740.251 148.028 741.939 147.643 744.033 147.634C746.127 147.626 747.92 150.764 749.413 157.049C754.415 154.8 759.15 152.5 763.618 150.149C768.132 147.741 772.685 145.198 777.276 142.52C781.913 139.785 785.787 137.26 788.897 134.946C792.002 132.58 794.283 130.353 795.741 128.263C797.193 126.122 798.232 124.024 798.855 121.969C799.473 119.862 800.743 118.473 802.662 117.802C804.999 117.61 806.76 117.924 807.945 118.743C809.124 119.511 810.017 121.539 810.621 124.827C810.669 126.288 810.455 127.751 809.979 129.214C809.503 130.677 808.306 132.504 806.387 134.694C804.515 136.827 802.452 138.639 800.198 140.131C797.992 141.565 795.529 143.314 792.812 145.378C790.146 147.436 787.517 150.093 784.924 153.348C782.382 156.597 780.61 159.689 779.607 162.621C778.649 165.496 777.616 168.143 776.507 170.563C775.392 172.931 773.538 174.983 770.943 176.72C768.344 178.405 764.188 179.728 758.475 180.69C754.631 180.986 751.115 180.41 747.927 178.962C744.739 177.514 742.187 175.135 740.271 171.827C738.355 168.518 737.015 164.704 736.251 160.385ZM840.978 171.148C835.629 171.077 831.69 170.467 829.161 169.316C826.633 168.166 824.493 166.478 822.742 164.251C820.992 162.025 819.94 159.726 819.588 157.354C819.236 154.982 819.276 152.595 819.706 150.194C820.131 147.74 819.411 147.868 817.547 150.576C815.734 153.278 813.099 155.883 809.642 158.39C806.186 160.898 803.256 162.931 800.852 164.491C798.444 165.999 796.5 164.185 795.023 159.05C803.01 154.29 808.661 149.224 811.976 143.851C815.285 138.427 819.287 134.37 823.982 131.682C828.723 128.936 832.469 126.189 835.219 123.441C837.97 120.693 840.759 119.565 843.585 120.056C846.412 120.546 847.94 122.141 848.169 124.841C848.398 127.54 847.081 129.981 844.219 132.165C841.357 134.348 839.286 136.58 838.005 138.86C836.724 141.141 835.752 143.625 835.09 146.312C834.427 149 834.671 151.592 835.822 154.091C836.973 156.589 838.832 158.097 841.399 158.615C843.967 159.133 847.89 159.091 853.168 158.488C858.447 157.885 863.026 156.858 866.907 155.406C870.788 153.955 874.136 152.166 876.952 150.039C879.767 147.913 882.238 147.001 884.364 147.303L885.685 150.936C884.565 153.252 882.814 155.293 880.433 157.06C878.051 158.827 875.671 160.358 873.292 161.653C870.914 162.948 867.473 164.354 862.971 165.871C858.468 167.388 853.302 168.816 847.472 170.157L840.978 171.148ZM871.073 68.0193C872.118 64.978 874.438 62.1178 878.034 59.439L880.97 58.9758C883.576 59.8563 885.027 61.2236 885.325 63.0777C885.623 64.9318 887.102 66.5581 889.761 67.9566L888.949 70.7119C886.624 72.5252 883.992 73.8992 881.052 74.834L878.174 74.3485C875.042 71.4283 872.675 69.3186 871.073 68.0193ZM903.136 133.721C900.483 136.407 898.412 139.398 896.923 142.695C895.434 145.992 896.001 148.42 898.625 149.98C901.249 151.539 904.457 151.676 908.251 150.39C912.044 149.105 914.906 146.921 916.836 143.84C918.767 140.758 919.207 136.942 918.157 132.391C917.106 127.84 915.003 126.253 911.848 127.629C908.692 129.005 905.788 131.036 903.136 133.721ZM897.517 173.267C891.483 177.666 885.115 182.388 878.414 187.433C871.714 192.478 864.987 198.023 858.233 204.068C851.48 210.113 844.84 217.246 838.313 225.467C831.787 233.688 826.885 240.169 823.609 244.909C820.333 249.649 817.872 254.173 816.226 258.482C814.581 262.79 814.213 266.546 815.123 269.75C816.033 272.955 818.087 274.076 821.286 273.114C824.485 272.152 827.611 270.491 830.664 268.131C833.717 265.77 837.956 261.479 843.382 255.258C848.808 249.037 854 242.081 858.959 234.39C863.917 226.699 869.843 217.232 876.735 205.988C883.628 194.744 890.555 183.837 897.517 173.267ZM910.717 158.224C904.168 158.697 898.787 159.074 894.575 159.356C890.363 159.638 887.083 158.566 884.736 156.14C882.388 153.714 881.122 150.861 880.937 147.582C880.752 144.302 882.639 140.544 886.596 136.309C890.553 132.074 894.666 128.582 898.936 125.833C903.205 123.084 908.725 119.524 915.496 115.152L918.915 114.796C923.264 116.332 926.404 118.571 928.334 121.512C930.264 124.453 931.297 127.33 931.433 130.143C931.569 132.957 931.116 135.649 930.075 138.218C929.034 140.788 929.093 142.615 930.253 143.698C931.414 144.782 934.312 144.453 938.948 142.713C943.584 140.973 948.311 138.595 953.129 135.58C957.946 132.564 963.489 131.986 969.757 133.846C961.392 141.002 955.155 145.475 951.048 147.265C946.94 149.054 941.949 151.407 936.074 154.324C930.199 157.24 925.515 160.033 922.023 162.701C918.531 165.369 914.335 169.576 909.436 175.324C904.536 181.071 899.246 188.849 893.566 198.657C887.885 208.465 882.221 217.67 876.571 226.271C870.922 234.872 866.261 241.903 862.589 247.365C858.917 252.827 854.246 258.76 848.578 265.164C842.909 271.567 838.371 275.758 834.964 277.737C831.557 279.715 828.269 281.079 825.101 281.828L821.682 282.184C815.385 281.06 811.016 279.081 808.573 276.246C806.131 273.411 804.324 269.384 803.151 264.165C803.747 257.819 806.256 250.75 810.681 242.957C820.678 229.348 828.441 219.924 833.969 214.687C839.498 209.451 845.337 204.181 851.487 198.88C857.637 193.578 864.591 188.193 872.347 182.724C880.103 177.255 886.792 172.604 892.415 168.772C898.037 164.939 904.138 161.423 910.717 158.224ZM1066.98 127.64C1067.09 131.713 1066.33 134.699 1064.69 136.597C1063.06 138.496 1057.66 141.467 1048.5 145.512C1039.34 149.556 1032.36 151.174 1027.56 150.365C1022.77 149.556 1019.6 147.843 1018.07 145.227C1016.54 142.611 1016.08 139.7 1016.69 136.495C1017.3 133.29 1014.66 134.298 1008.76 139.521C1002.86 144.744 997.666 148.899 993.17 151.986C988.675 155.073 985.289 157.258 983.014 158.543C979.802 158.877 977.233 158.595 975.307 157.697C973.38 156.798 972.168 154.96 971.669 152.185C971.17 149.409 972.273 146.676 974.977 143.985C977.682 141.294 980.272 138.511 982.747 135.634C985.223 132.758 986.631 129.941 986.972 127.182C987.313 124.424 985.644 123.734 981.965 125.112C978.286 126.49 973.394 129.802 967.29 135.046C961.187 140.291 957.132 143.593 955.127 144.954C953.122 146.315 950.271 147.346 946.573 148.045C946.551 142.811 947.528 139.62 949.503 138.471C951.478 137.323 954.397 134.688 958.262 130.567C962.126 126.447 966.78 122.61 972.222 119.058C977.664 115.506 981.939 112.809 985.046 110.966C988.153 109.124 991.612 107.899 995.424 107.292C998.973 108.179 1001.23 110.012 1002.2 112.791C1003.17 115.57 1003.23 118.654 1002.38 122.041C1001.53 125.429 997.78 131.397 991.13 139.945C1002.22 131.772 1009.88 126.13 1014.11 123.018C1018.34 119.907 1021.8 117.897 1024.48 116.989C1027.16 116.081 1029.6 116.69 1031.81 118.816C1034.03 120.942 1034.38 124.335 1032.88 128.996C1031.37 133.656 1031.07 137.039 1031.97 139.144C1032.87 141.25 1037.82 140.524 1046.82 136.967C1055.83 133.411 1062.55 130.302 1066.98 127.64ZM1074.25 140.079C1076.33 136.929 1078.06 134.655 1079.43 133.255C1080.8 131.855 1082.68 131.031 1085.06 130.783C1087.44 130.534 1089.48 131.002 1091.18 132.187C1092.85 133.165 1093.81 134.793 1094.04 137.073L1094.12 137.85C1094.19 140.462 1093.53 142.232 1092.16 143.16C1090.79 144.088 1089.44 144.936 1088.11 145.703C1086.77 146.471 1085.52 147.702 1084.33 149.396C1083.52 150.633 1082.38 151.327 1080.93 151.478C1080.21 151.554 1078.97 151.448 1077.21 151.159C1075.45 150.871 1074.27 150.13 1073.68 148.935C1073.08 147.741 1072.75 146.833 1072.69 146.211C1072.51 144.553 1073.03 142.509 1074.25 140.079Z" fill="#252525"/>
</svg>
